<svg xmlns="http://www.w3.org/2000/svg" width="80" height="18" viewBox="0 0 80 18">
  <g fill="#323333" fill-rule="evenodd">
    <path d="M50.1298408 17.7333281L43.0122379 17.7333281C41.7229412 17.7333281 40.5960504 17.267605 39.6331579 16.3357606 38.6694693 15.4043144 38.188222 14.2861808 38.188222 12.9805638L38.188222.234478017 39.9794648.234478017 39.9794648 12.9805638C39.9794648 13.7925939 40.2815878 14.4891883 40.8866298 15.0703471 41.4916718 15.6515059 42.2002079 15.9420853 43.0122379 15.9420853L50.1298408 15.9420853 50.1298408 17.7333281zM79.7312428 9.35086899C79.6209819 11.3407407 78.8973198 13.1152653 77.5606546 14.6748407 76.2231933 16.2344161 74.5645024 17.2188035 72.584184 17.6264108 70.1827245 18.1211919 67.9568067 17.6936819 65.9068288 16.3438809 63.857249 14.994478 62.5850686 13.1184497 62.0902875 10.7169902 61.5891375 8.28408439 62.0098806 6.04781725 63.3533127 4.00659655 64.6967448 1.96657001 66.5771517.697175939 68.9945334.19960849 70.319655-.073456525 71.5488456-.0662915538 72.6809111.22070535 73.6250951.464712427 74.8351791 1.01203662 76.3111632 1.86227987L75.4111632 3.41270004C74.1170898 2.65560141 73.0917028 2.17594639 72.3350022 1.97413304 71.440575 1.73569872 70.4474303 1.7289318 69.3559664 1.95383229 67.4218222 2.3522843 65.9203627 3.36851605 64.8507917 5.00292561 63.7820168 6.63773321 63.4464573 8.42181106 63.8449093 10.3551591 64.2397789 12.2737792 65.2552145 13.7712582 66.8916143 14.8491883 68.5276161 15.9263223 70.304529 16.2670565 72.223149 15.872187 73.594843 15.5891706 74.7842282 14.950294 75.7905086 13.954363 76.796391 12.9588301 77.45318 11.7873573 77.7608757 10.4391485L73.4097479 11.335566C72.0846263 11.608631 70.8574259 11.3737792 69.729341 10.6310105 68.60046 9.88824184 67.899885 8.85409765 67.62682 7.52817992 67.5977621 7.38766687 67.5698983 7.13370845 67.5432287 6.76511048L68.9248739 6.72450898 69.3714905 7.12017461C69.5327023 7.98116532 69.9709598 8.65109014 70.6878549 9.12875489 71.403954 9.6076138 72.1909067 9.75807819 73.0483149 9.58134224L78.6393808 8.42977213C79.2316851 8.30756957 79.5859531 8.52769341 79.7017868 9.08894949 79.717709 9.16696807 79.7272623 9.25414188 79.7312428 9.35086899M8.83639982 16.0135758C6.87797435 16.0135758 5.2141088 15.3249424 3.84480318 13.9476757 2.47549757 12.5708071 1.79124281 10.9025629 1.79124281 8.94413746 1.79124281 6.96978983 2.47549757 5.2979632 3.84480318 3.92865758 5.2141088 2.55935197 6.87797435 1.8743011 8.83639982 1.8743011 10.6093322 1.8743011 12.2242371 2.5271096 13.6839009 3.81919275L13.6839009 1.56541123C12.2011499.583412117 10.5866431.0830582914 8.83639982.0830582914 6.38438744.0830582914 4.29898275.943252896 2.5789916 2.662846.859398496 4.38204104 5.48132968e-14 6.47620292 5.48132968e-14 8.94413746 5.48132968e-14 11.3961498.859398496 13.4859331 2.5789916 15.2134873 4.29898275 16.9410415 6.38438744 17.8048186 8.83639982 17.8048186 10.5866431 17.8048186 12.2011499 17.3044647 13.6839009 16.3224656L13.6839009 14.0690822C12.2242371 15.3603692 10.6093322 16.0135758 8.83639982 16.0135758M17.0836002.459179477C16.8598939.17695922 16.6039452.035650065 16.315356.035650065 15.7556922.035650065 15.4758602.362054311 15.4758602 1.0148628L15.4758602 17.6618774 17.2671031 17.6618774 17.2671031 3.68938735 25.551402 14.7425497 25.551402 11.7559508 17.0836002.459179477z"/>
    <polygon points="19.87 1.875 26.82 1.875 26.82 .083 19.87 .083"/>
    <path d="M29.1604777 17.6439252L29.1604777 4.56586236 29.1361964 4.56586236 29.1361964 3.8808115C29.1361964 3.33945811 29.3352234 2.8701525 29.7332773 2.47170049 30.1313313 2.07404458 30.6010349 1.87461955 31.1423883 1.87461955L36.6120478 1.87461955 36.6120478.0833767346 31.1423883.0833767346C30.107448.0833767346 29.2162052.457547456 28.4678638 1.2058889 27.7191243 1.95423034 27.3449536 2.84587121 27.3449536 3.8808115L27.3449536 14.1486134 27.3429633 14.1454289 27.3429633 17.6439252 27.3449536 17.6439252 29.1604777 17.6439252zM56.248368 15.8775607C54.6657054 15.8775607 53.3027687 15.3131202 52.1965767 14.2005594 51.0903848 13.0887947 50.5295268 11.7222755 50.5295268 10.1384188 50.5295268 8.54182432 51.0903848 7.1717226 52.1961787 6.06632676 53.3031667 4.95973675 54.6661035 4.39848067 56.248368 4.39848067 57.8441663 4.39848067 59.21387 4.95973675 60.32046 6.06632676 61.42705 7.17291676 61.987908 8.54301849 61.987908 10.1384188 61.987908 11.7210813 61.42705 13.0876005 60.3200619 14.2005594 59.214268 15.3131202 57.8445644 15.8775607 56.248368 15.8775607M61.6654843 4.72130243C60.1887041 3.2449203 58.366015 2.4961808 56.248368 2.4961808 54.1438567 2.4961808 52.3279345 3.2449203 50.8511544 4.72130243 49.3747722 6.19768456 48.6268288 8.01997558 48.6268288 10.1384188 48.6268288 12.24293 49.3747722 14.0620366 50.8507563 15.5447876 52.3275365 17.0283347 54.1438567 17.7798606 56.248368 17.7798606 58.3664131 17.7798606 60.1891022 17.0283347 61.6658824 15.5447876 63.1418664 14.0616386 63.8906059 12.24293 63.8906059 10.1384188 63.8906059 8.01997558 63.1418664 6.19768456 61.6654843 4.72130243"/>
  </g>
</svg>
